<svg width="324" height="81" viewBox="0 0 324 81" fill="none" xmlns="http://www.w3.org/2000/svg">
<path d="M29.3 0L54.16 5.13V72.71L29.3 77.84V0Z" fill="#6C5ED4"/>
<path d="M0 8.29004L19.83 12.04V65.8L0 69.55V8.29004Z" fill="#6C5ED4"/>
<path d="M209.281 53.6048H206.806V57.93H205.539V52.5436H209.281V53.6048Z" fill="white"/>
<path d="M211.554 57.7942V60.0423H210.297V52.5436H211.554V52.9057C211.873 52.5939 212.26 52.438 212.716 52.438C214.432 52.438 215.291 53.3868 215.291 55.2846C215.291 56.1563 215.054 56.8319 214.582 57.3114C214.109 57.7908 213.46 58.0306 212.635 58.0306C212.253 58.0306 211.893 57.9518 211.554 57.7942ZM211.554 53.8613V56.6928C211.782 56.8805 212.05 56.9744 212.359 56.9744C212.925 56.9744 213.338 56.8353 213.596 56.557C213.854 56.2787 213.983 55.8395 213.983 55.2393C213.983 54.6324 213.861 54.1932 213.616 53.9216C213.375 53.6467 212.955 53.5092 212.359 53.5092C212.057 53.5092 211.789 53.6266 211.554 53.8613Z" fill="white"/>
<path d="M218.766 58.795C218.632 59.1538 218.349 59.4505 217.916 59.6852C217.484 59.9233 216.966 60.0423 216.362 60.0423V58.9308C217.331 58.9308 217.815 58.6861 217.815 58.1965C217.815 57.878 217.681 57.3868 217.413 56.7229L215.723 52.5436H217.031L218.494 56.2603L219.822 52.5436H221.125L218.766 58.795Z" fill="white"/>
<path d="M226.551 57.93H225.294V53.6048H223.152V57.93H221.894V52.5436H226.551V57.93Z" fill="white"/>
<path d="M232.566 57.93H231.309V53.6048H229.167V57.93H227.909V52.5436H232.566V57.93Z" fill="white"/>
<path d="M236.932 57.3969C236.818 57.5813 236.613 57.7338 236.318 57.8545C236.023 57.9719 235.733 58.0306 235.448 58.0306C234.858 58.0306 234.4 57.8847 234.075 57.593C233.75 57.3013 233.587 56.8923 233.587 56.3659C233.587 55.7724 233.812 55.2913 234.261 54.9225C234.711 54.5503 235.381 54.3642 236.273 54.3642C236.417 54.3642 236.593 54.3927 236.801 54.4497C236.801 53.8093 236.402 53.4891 235.604 53.4891C235.135 53.4891 234.736 53.5679 234.407 53.7255L234.141 52.7599C234.566 52.5453 235.081 52.438 235.685 52.438C236.516 52.438 237.12 52.6308 237.495 53.0164C237.874 53.3986 238.063 54.1027 238.063 55.1287V56.2804C238.063 56.9979 238.208 57.4488 238.496 57.6333C238.399 57.8076 238.29 57.9166 238.169 57.9602C238.048 58.0071 237.897 58.0306 237.716 58.0306C237.539 58.0306 237.378 57.9669 237.234 57.8395C237.089 57.7087 236.989 57.5612 236.932 57.3969ZM236.811 55.3952C236.593 55.355 236.431 55.3349 236.323 55.3349C235.334 55.3349 234.84 55.6567 234.84 56.3005C234.84 56.79 235.118 57.0348 235.674 57.0348C236.432 57.0348 236.811 56.6576 236.811 55.9032V55.3952Z" fill="white"/>
<path d="M247.192 57.93H245.934V53.6048H243.792V57.93H242.534V52.5436H247.192V57.93Z" fill="white"/>
<path d="M249.807 57.7942V60.0423H248.549V52.5436H249.807V52.9057C250.125 52.5939 250.513 52.438 250.969 52.438C252.685 52.438 253.544 53.3868 253.544 55.2846C253.544 56.1563 253.307 56.8319 252.834 57.3114C252.362 57.7908 251.713 58.0306 250.888 58.0306C250.506 58.0306 250.145 57.9518 249.807 57.7942ZM249.807 53.8613V56.6928C250.035 56.8805 250.303 56.9744 250.611 56.9744C251.178 56.9744 251.591 56.8353 251.849 56.557C252.107 56.2787 252.236 55.8395 252.236 55.2393C252.236 54.6324 252.114 54.1932 251.869 53.9216C251.627 53.6467 251.208 53.5092 250.611 53.5092C250.31 53.5092 250.042 53.6266 249.807 53.8613Z" fill="white"/>
<path d="M254.248 55.2192C254.248 54.4044 254.482 53.7372 254.952 53.2175C255.425 52.6978 256.052 52.438 256.833 52.438C257.651 52.438 258.286 52.6895 258.739 53.1924C259.191 53.6953 259.418 54.3709 259.418 55.2192C259.418 56.101 259.181 56.79 258.709 57.2862C258.239 57.7825 257.614 58.0306 256.833 58.0306C256.021 58.0306 255.388 57.7774 254.932 57.2711C254.476 56.7615 254.248 56.0775 254.248 55.2192ZM255.555 55.2192C255.555 56.4095 255.981 57.0046 256.833 57.0046C257.218 57.0046 257.527 56.8537 257.758 56.552C257.993 56.2468 258.11 55.8026 258.11 55.2192C258.11 54.0524 257.684 53.469 256.833 53.469C256.444 53.469 256.134 53.6215 255.902 53.9267C255.671 54.2318 255.555 54.6626 255.555 55.2192Z" fill="white"/>
<path d="M266.906 57.93H265.619C265.347 56.4078 265.203 55.5578 265.186 55.3801C265.173 55.2024 265.166 55.08 265.166 55.013H265.116C265.046 55.2477 264.984 55.417 264.93 55.5209L263.663 58.0306H263.22L262.284 56.1949C262.036 55.7054 261.892 55.4069 261.852 55.2997C261.812 55.1924 261.78 55.0968 261.756 55.013H261.706C261.706 55.2376 261.674 55.5377 261.611 55.9132L261.274 57.93H260.046L261.067 52.438H261.55L263.507 56.2804L265.433 52.438H265.891L266.906 57.93Z" fill="white"/>
<path d="M269.099 54.4698C269.394 54.443 269.713 54.4296 270.055 54.4296C270.715 54.4296 271.228 54.5855 271.594 54.8973C271.963 55.2058 272.147 55.6467 272.147 56.22C272.147 57.36 271.446 57.93 270.045 57.93H267.872V52.5436H269.099V54.4698ZM269.099 56.9493C269.377 56.966 269.656 56.9744 269.934 56.9744C270.31 56.9744 270.564 56.899 270.699 56.7481C270.833 56.5939 270.9 56.3977 270.9 56.1597C270.9 55.9384 270.818 55.754 270.653 55.6064C270.492 55.4589 270.256 55.3852 269.944 55.3852C269.766 55.3852 269.485 55.3952 269.099 55.4153V56.9493ZM274.199 57.93H272.962V52.5436H274.199V57.93Z" fill="white"/>
<path d="M282.387 57.93H275.557V52.5436H276.774V56.909H278.358V52.5436H279.575V56.909H281.17V52.5436H282.387V57.93Z" fill="white"/>
<path d="M288.558 57.93H287.33V53.5344H286.003C285.976 54.2854 285.89 54.9845 285.746 55.6316C285.605 56.2787 285.411 56.7783 285.163 57.1303C284.915 57.479 284.648 57.7104 284.363 57.8244C284.081 57.935 283.724 57.9903 283.292 57.9903V56.8789C283.627 56.8789 283.905 56.7649 284.127 56.5369C284.348 56.3055 284.536 55.8546 284.69 55.184C284.844 54.5101 284.921 53.7423 284.921 52.8806V52.5436H288.558V57.93Z" fill="white"/>
<path d="M294.754 55.6215H290.901C290.921 56.0507 291.069 56.386 291.344 56.6274C291.622 56.8654 291.989 56.9845 292.445 56.9845C293.012 56.9845 293.448 56.8319 293.753 56.5268L294.236 57.4975C293.783 57.8529 293.124 58.0306 292.259 58.0306C291.441 58.0306 290.792 57.7942 290.313 57.3214C289.833 56.8487 289.594 56.1731 289.594 55.2946C289.594 54.4396 289.857 53.7506 290.383 53.2276C290.91 52.7012 291.538 52.438 292.269 52.438C293.04 52.438 293.664 52.671 294.14 53.1371C294.616 53.5998 294.854 54.1949 294.854 54.9225C294.854 55.0935 294.821 55.3265 294.754 55.6215ZM290.951 54.676H293.587C293.503 53.8847 293.067 53.4891 292.279 53.4891C291.572 53.4891 291.129 53.8847 290.951 54.676Z" fill="white"/>
<path d="M300.623 57.93H299.366V55.6215H297.132V57.93H295.875V52.5436H297.132V54.5805H299.366V52.5436H300.623V57.93Z" fill="white"/>
<path d="M306.728 57.93H305.471V55.6215H303.238V57.93H301.981V52.5436H303.238V54.5805H305.471V52.5436H306.728V57.93Z" fill="white"/>
<path d="M309.313 54.4698C309.609 54.443 309.927 54.4296 310.269 54.4296C310.93 54.4296 311.443 54.5855 311.808 54.8973C312.177 55.2058 312.361 55.6467 312.361 56.22C312.361 57.36 311.66 57.93 310.259 57.93H308.086V52.5436H309.313V54.4698ZM309.313 56.9493C309.592 56.966 309.87 56.9744 310.148 56.9744C310.524 56.9744 310.779 56.899 310.913 56.7481C311.047 56.5939 311.114 56.3977 311.114 56.1597C311.114 55.9384 311.032 55.754 310.868 55.6064C310.707 55.4589 310.47 55.3852 310.158 55.3852C309.981 55.3852 309.699 55.3952 309.313 55.4153V56.9493ZM314.413 57.93H313.176V52.5436H314.413V57.93Z" fill="white"/>
<path d="M319.221 57.93L317.954 56.0742L316.656 57.93H315.193L317.315 55.189L315.339 52.5436H316.792L317.984 54.2536L319.181 52.5436H320.594L318.623 55.1287L320.755 57.93H319.221Z" fill="white"/>
<path d="M210.131 69.3303C209.953 69.3504 209.758 69.3604 209.547 69.3604C208.917 69.3604 208.553 69.0386 208.456 68.3948C208.318 67.4527 207.779 66.9816 206.836 66.9816H206.806V69.3001H205.559V63.9137H206.806V65.9405H206.867C207.779 65.9405 208.293 65.5533 208.411 64.7788C208.504 64.1618 208.858 63.8534 209.472 63.8534C209.566 63.8534 209.755 63.8634 210.04 63.8835V64.9045C209.953 64.8877 209.874 64.8793 209.804 64.8793C209.67 64.8793 209.577 64.9833 209.527 65.1912C209.366 65.8751 208.908 66.2976 208.154 66.4585C208.965 66.6765 209.453 67.1979 209.618 68.0227C209.658 68.2205 209.747 68.3194 209.884 68.3194C210.008 68.3194 210.09 68.3127 210.131 68.2993V69.3303Z" fill="white"/>
<path d="M210.855 66.5893C210.855 65.7746 211.09 65.1073 211.559 64.5876C212.032 64.068 212.659 63.8081 213.44 63.8081C214.258 63.8081 214.893 64.0596 215.346 64.5625C215.799 65.0654 216.025 65.741 216.025 66.5893C216.025 67.4711 215.789 68.1601 215.316 68.6563C214.846 69.1526 214.221 69.4007 213.44 69.4007C212.628 69.4007 211.995 69.1475 211.539 68.6413C211.083 68.1316 210.855 67.4476 210.855 66.5893ZM212.162 66.5893C212.162 67.7796 212.588 68.3747 213.44 68.3747C213.825 68.3747 214.134 68.2238 214.365 67.9221C214.6 67.617 214.717 67.1727 214.717 66.5893C214.717 65.4225 214.291 64.8391 213.44 64.8391C213.051 64.8391 212.741 64.9917 212.509 65.2968C212.278 65.6019 212.162 66.0327 212.162 66.5893Z" fill="white"/>
<path d="M223.514 69.3001H222.226C221.954 67.7779 221.81 66.9279 221.794 66.7502C221.78 66.5725 221.773 66.4502 221.773 66.3831H221.723C221.653 66.6178 221.591 66.7871 221.537 66.8911L220.27 69.4007H219.827L218.892 67.565C218.644 67.0755 218.499 66.7771 218.459 66.6698C218.419 66.5625 218.387 66.4669 218.364 66.3831H218.313C218.313 66.6077 218.281 66.9078 218.218 67.2833L217.881 69.3001H216.654L217.675 63.8081H218.157L220.114 67.6505L222.04 63.8081H222.498L223.514 69.3001Z" fill="white"/>
<path d="M229.136 69.3001H227.879V64.9749H225.736V69.3001H224.479V63.9137H229.136V69.3001Z" fill="white"/>
<path d="M233.502 68.767C233.388 68.9514 233.183 69.104 232.888 69.2247C232.593 69.342 232.303 69.4007 232.018 69.4007C231.428 69.4007 230.97 69.2548 230.645 68.9631C230.32 68.6714 230.157 68.2624 230.157 67.736C230.157 67.1425 230.382 66.6614 230.831 66.2926C231.28 65.9204 231.951 65.7343 232.843 65.7343C232.987 65.7343 233.163 65.7628 233.371 65.8198C233.371 65.1794 232.972 64.8592 232.174 64.8592C231.705 64.8592 231.306 64.938 230.977 65.0956L230.71 64.13C231.136 63.9154 231.651 63.8081 232.254 63.8081C233.086 63.8081 233.689 64.0009 234.065 64.3865C234.444 64.7687 234.633 65.4728 234.633 66.4988V67.6505C234.633 68.368 234.777 68.819 235.066 69.0034C234.969 69.1777 234.86 69.2867 234.739 69.3303C234.618 69.3772 234.467 69.4007 234.286 69.4007C234.109 69.4007 233.948 69.337 233.803 69.2096C233.659 69.0788 233.559 68.9313 233.502 68.767ZM233.381 66.7653C233.163 66.7251 233 66.705 232.893 66.705C231.904 66.705 231.41 67.0269 231.41 67.6706C231.41 68.1601 231.688 68.4049 232.244 68.4049C233.002 68.4049 233.381 68.0277 233.381 67.2733V66.7653Z" fill="white"/>
<path d="M240.744 69.3001H239.487V66.9917H237.254V69.3001H235.996V63.9137H237.254V65.9506H239.487V63.9137H240.744V69.3001Z" fill="white"/>
<path d="M246.935 69.3001H245.678V66.0461L242.444 69.4258H242.102V63.9137H243.359V67.1677L246.593 63.788H246.935V69.3001Z" fill="white"/>
<path d="M253.131 69.3001H251.874V66.0461L248.64 69.4258H248.298V63.9137H249.555V67.1677L252.789 63.788H253.131V69.3001ZM252.699 61.3085C252.605 61.8081 252.388 62.1903 252.05 62.4552C251.711 62.7201 251.302 62.8525 250.823 62.8525C250.33 62.8525 249.921 62.7218 249.595 62.4603C249.27 62.1987 249.057 61.8148 248.957 61.3085L250.008 61.0923C250.085 61.6958 250.367 61.9976 250.853 61.9976C251.352 61.9976 251.627 61.6992 251.678 61.1023L252.699 61.3085Z" fill="white"/>
<path d="M80.4392 8.2019H89.318C91.2266 8.2019 92.9299 8.46766 94.4279 8.99918C95.9258 9.50655 97.1942 10.2676 98.2331 11.2823C99.2719 12.297 100.069 13.5654 100.625 15.0875C101.181 16.6096 101.458 18.3612 101.458 20.3423V21.0671C101.458 23.0965 101.168 24.8965 100.589 26.4669C100.033 28.0131 99.2115 29.3177 98.1243 30.3808C97.0613 31.4197 95.7566 32.2169 94.2104 32.7726C92.6642 33.3041 90.9126 33.5699 88.9556 33.5699H80.4392V8.2019ZM88.5932 29.0761C89.5596 29.0761 90.4777 28.9433 91.3474 28.6775C92.2172 28.3876 92.9783 27.9285 93.6306 27.3004C94.3071 26.6722 94.8386 25.8508 95.2251 24.8361C95.6117 23.8213 95.805 22.565 95.805 21.0671V20.3423C95.805 18.941 95.6238 17.7572 95.2614 16.7908C94.899 15.8002 94.4037 15.0029 93.7755 14.3989C93.1715 13.7949 92.4467 13.3601 91.6011 13.0943C90.7797 12.8285 89.8979 12.6957 88.9556 12.6957H85.8752V29.0761H88.5932Z" fill="white"/>
<path d="M122.664 24.448H109.109C109.18 25.958 109.699 27.1376 110.667 27.987C111.646 28.8246 112.938 29.2434 114.542 29.2434C116.536 29.2434 118.069 28.7066 119.143 27.6331L120.841 31.0483C119.249 32.2988 116.931 32.924 113.887 32.924C111.009 32.924 108.726 32.0923 107.039 30.429C105.352 28.7656 104.509 26.3885 104.509 23.2978C104.509 20.2896 105.435 17.8653 107.287 16.025C109.139 14.1729 111.351 13.2468 113.923 13.2468C116.636 13.2468 118.83 14.0667 120.505 15.7065C122.18 17.3344 123.018 19.4284 123.018 21.9883C123.018 22.59 122.9 23.4098 122.664 24.448ZM109.286 21.1212H118.559C118.264 18.3372 116.73 16.9451 113.958 16.9451C111.469 16.9451 109.912 18.3372 109.286 21.1212Z" fill="white"/>
<path d="M138.855 22.4661C141.321 23.3509 142.554 24.9434 142.554 27.2438C142.554 28.8718 141.928 30.1694 140.678 31.1368C139.427 32.0923 137.564 32.5701 135.086 32.5701H126.61V13.6538C130.161 13.4887 132.916 13.4061 134.874 13.4061C137.056 13.4061 138.743 13.8839 139.935 14.8394C141.126 15.7832 141.722 17.0454 141.722 18.6262C141.722 19.4284 141.468 20.1834 140.961 20.8912C140.466 21.5872 139.764 22.1122 138.855 22.4661ZM130.892 21.0151C131.352 21.0387 132.585 21.0505 134.591 21.0505C136.525 21.0505 137.493 20.3132 137.493 18.8385C137.493 18.2015 137.251 17.6942 136.767 17.3167C136.295 16.9275 135.641 16.7328 134.803 16.7328C133.246 16.7328 131.942 16.78 130.892 16.8744V21.0151ZM130.892 29.1195C132.426 29.1785 133.718 29.208 134.768 29.208C137.068 29.208 138.218 28.3704 138.218 26.6953C138.218 25.8577 137.888 25.2325 137.227 24.8196C136.567 24.4067 135.747 24.2002 134.768 24.2002L130.892 24.2356V29.1195Z" fill="white"/>
<path d="M161.877 32.5701H157.524V25.3858H156.356C153.041 25.3858 151.183 26.8132 150.782 29.6681C150.499 31.7443 149.254 32.7825 147.048 32.7825C146.423 32.7825 145.821 32.7471 145.243 32.6763V29.0487C145.385 29.0959 145.638 29.1195 146.004 29.1195C146.535 29.1195 146.871 28.7715 147.013 28.0755C147.225 27.061 147.685 26.188 148.393 25.4566C149.101 24.7252 149.98 24.2238 151.03 23.9525C147.962 23.3862 146.429 21.7406 146.429 19.0155C146.429 17.4111 147.025 16.0781 148.216 15.0164C149.408 13.9428 151.36 13.4061 154.073 13.4061C155.666 13.4061 158.267 13.5005 161.877 13.6892V32.5701ZM157.524 22.0945V16.8744C156.58 16.78 155.43 16.7328 154.073 16.7328C152.988 16.7328 152.192 16.9746 151.684 17.4583C151.177 17.9302 150.923 18.5436 150.923 19.2986C150.923 20.1008 151.26 20.7614 151.932 21.2805C152.616 21.7878 153.548 22.0473 154.728 22.0591L157.524 22.0945Z" fill="white"/>
<path d="M175.343 17.3521V32.5701H170.884V17.3521H165.451V13.6184H180.775V17.3521H175.343Z" fill="white"/>
<path d="M201.037 32.5701H196.613V24.448H188.756V32.5701H184.332V13.6184H188.756V20.785H196.613V13.6184H201.037V32.5701Z" fill="white"/>
<path d="M216.396 30.6944C215.995 31.3432 215.275 31.88 214.237 32.3047C213.199 32.7176 212.179 32.924 211.176 32.924C209.1 32.924 207.489 32.4109 206.345 31.3845C205.201 30.3582 204.629 28.919 204.629 27.0669C204.629 24.9788 205.419 23.286 207 21.9883C208.581 20.6789 210.94 20.0241 214.078 20.0241C214.585 20.0241 215.205 20.1244 215.936 20.325C215.936 18.0717 214.532 16.9451 211.725 16.9451C210.073 16.9451 208.669 17.2224 207.513 17.7768L206.575 14.3793C208.073 13.6243 209.884 13.2468 212.008 13.2468C214.933 13.2468 217.057 13.9251 218.378 15.2818C219.711 16.6266 220.378 19.104 220.378 22.7138V26.766C220.378 29.2906 220.885 30.8773 221.899 31.5261C221.557 32.1395 221.174 32.5229 220.749 32.6763C220.324 32.8414 219.794 32.924 219.157 32.924C218.531 32.924 217.965 32.6999 217.458 32.2516C216.951 31.7915 216.597 31.2725 216.396 30.6944ZM215.971 23.6517C215.205 23.5101 214.632 23.4393 214.255 23.4393C210.775 23.4393 209.035 24.5718 209.035 26.8368C209.035 28.5592 210.014 29.4203 211.972 29.4203C214.638 29.4203 215.971 28.0932 215.971 25.4389V23.6517Z" fill="white"/>
<path d="M244.496 39.1705H240.692V32.5701H227.385V39.1705H223.58V29.0841H225.385C226.659 27.3854 227.639 25.374 228.323 23.05C229.007 20.726 229.349 18.3903 229.349 16.0427V13.6184H241.877V29.0841H244.496V39.1705ZM237.79 29.0841V17.0513H233.012C232.776 22.124 231.649 26.1349 229.632 29.0841H237.79Z" fill="white"/>
<path d="M266.315 39.1705H262.439V32.5701H247.823V13.6184H252.211V28.9426H259.307V13.6184H263.696V28.9426H266.315V39.1705Z" fill="white"/>
<path d="M280.241 30.6944C279.84 31.3432 279.12 31.88 278.082 32.3047C277.044 32.7176 276.023 32.924 275.021 32.924C272.944 32.924 271.334 32.4109 270.19 31.3845C269.046 30.3582 268.473 28.919 268.473 27.0669C268.473 24.9788 269.264 23.286 270.845 21.9883C272.425 20.6789 274.785 20.0241 277.923 20.0241C278.43 20.0241 279.049 20.1244 279.781 20.325C279.781 18.0717 278.377 16.9451 275.569 16.9451C273.918 16.9451 272.514 17.2224 271.358 17.7768L270.42 14.3793C271.918 13.6243 273.729 13.2468 275.852 13.2468C278.778 13.2468 280.901 13.9251 282.223 15.2818C283.556 16.6266 284.222 19.104 284.222 22.7138V26.766C284.222 29.2906 284.73 30.8773 285.744 31.5261C285.402 32.1395 285.019 32.5229 284.594 32.6763C284.169 32.8414 283.638 32.924 283.001 32.924C282.376 32.924 281.81 32.6999 281.303 32.2516C280.795 31.7915 280.441 31.2725 280.241 30.6944ZM279.816 23.6517C279.049 23.5101 278.477 23.4393 278.1 23.4393C274.62 23.4393 272.88 24.5718 272.88 26.8368C272.88 28.5592 273.859 29.4203 275.817 29.4203C278.483 29.4203 279.816 28.0932 279.816 25.4389V23.6517Z" fill="white"/>
<path d="M297.688 17.3521V32.5701H293.229V17.3521H287.797V13.6184H303.121V17.3521H297.688Z" fill="white"/>
<path d="M311.066 20.3957C312.222 20.3014 313.514 20.2542 314.941 20.2542C317.312 20.2542 319.171 20.8027 320.515 21.8998C321.872 22.9969 322.55 24.5482 322.55 26.5537C322.55 28.394 321.943 29.8568 320.728 30.9421C319.513 32.0275 317.548 32.5701 314.835 32.5701H306.678V13.6184H311.066V20.3957ZM311.066 29.0841C312.246 29.1313 313.378 29.1549 314.464 29.1549C316.882 29.1549 318.091 28.2289 318.091 26.3767C318.091 25.61 317.808 24.967 317.242 24.448C316.687 23.9171 315.779 23.6517 314.517 23.6517C313.856 23.6517 312.706 23.6871 311.066 23.7578V29.0841Z" fill="white"/>
<path d="M104.282 68.4001H99.8223L97.1503 54.4562L91.9302 68.754H90.3022L85.0467 54.4562L82.2509 68.4001H77.827L83.0471 42.4941H85.4714L91.0985 59.9594L96.5664 42.4941H98.9906L104.282 68.4001Z" fill="white"/>
<path d="M118.137 66.5244C117.736 67.1732 117.016 67.71 115.978 68.1346C114.94 68.5475 113.92 68.754 112.917 68.754C110.841 68.754 109.23 68.2408 108.086 67.2145C106.942 66.1882 106.37 64.7489 106.37 62.8968C106.37 60.8088 107.16 59.1159 108.741 57.8183C110.322 56.5088 112.681 55.8541 115.819 55.8541C116.326 55.8541 116.945 55.9544 117.677 56.1549C117.677 53.9017 116.273 52.7751 113.465 52.7751C111.814 52.7751 110.41 53.0523 109.254 53.6068L108.316 50.2093C109.814 49.4543 111.625 49.0768 113.749 49.0768C116.674 49.0768 118.798 49.7551 120.119 51.1118C121.452 52.4566 122.118 54.9339 122.118 58.5438V62.596C122.118 65.1205 122.626 66.7072 123.64 67.3561C123.298 67.9695 122.915 68.3529 122.49 68.5063C122.065 68.6714 121.534 68.754 120.897 68.754C120.272 68.754 119.706 68.5298 119.199 68.0816C118.691 67.6215 118.337 67.1024 118.137 66.5244ZM117.712 59.4816C116.945 59.3401 116.373 59.2693 115.996 59.2693C112.516 59.2693 110.776 60.4018 110.776 62.6668C110.776 64.3891 111.755 65.2503 113.713 65.2503C116.379 65.2503 117.712 63.9232 117.712 61.2689V59.4816Z" fill="white"/>
<path d="M150.944 68.4001H126.914V49.4484H131.196V64.8079H136.77V49.4484H141.052V64.8079H146.662V49.4484H150.944V68.4001Z" fill="white"/>
<path d="M172.727 68.4001H168.303V56.9512L156.925 68.8425H155.722V49.4484H160.146V60.8973L171.524 49.006H172.727V68.4001Z" fill="white"/>
<path d="M194.227 68.4001H189.803V60.2779H181.946V68.4001H177.522V49.4484H181.946V56.615H189.803V49.4484H194.227V68.4001Z" fill="white"/>
</svg>
