<svg width="17" height="17" viewBox="0 0 17 17" fill="none" xmlns="http://www.w3.org/2000/svg">
<path d="M16 12.3749C16 12.7038 15.9075 13.0086 15.7593 13.2768L11.0232 7.9778L15.708 3.87905C15.8902 4.16825 16 4.50797 16 4.87508V12.3749ZM8.50002 8.93995L15.0187 3.23625C14.7512 3.08981 14.45 3 14.125 3H2.87499C2.54965 3 2.24832 3.08981 1.9819 3.23625L8.50002 8.93995ZM10.3174 8.59489L8.80848 9.91598C8.72022 9.99286 8.61032 10.0313 8.50002 10.0313C8.38965 10.0313 8.27975 9.99286 8.19149 9.91598L6.68225 8.59482L1.88622 13.9616C2.1737 14.1419 2.5106 14.25 2.87496 14.25H14.125C14.4893 14.25 14.8264 14.1419 15.1138 13.9616L10.3174 8.59489ZM1.29208 3.87902C1.10987 4.16822 1 4.50794 1 4.87508V12.375C1 12.7038 1.09206 13.0087 1.24079 13.2769L5.97635 7.97691L1.29208 3.87902Z" fill="#0A0815"/>
</svg>
