<svg width="203" height="49" viewBox="0 0 203 49" fill="none" xmlns="http://www.w3.org/2000/svg">
<path d="M18 0L34 3.22932V45.7707L18 49V0Z" fill="#6C5ED4"/>
<path d="M0 5L12 7.38737V41.6126L0 44V5Z" fill="#6C5ED4"/>
<path d="M131.371 33.7672H129.803V36.6111H129V33.0694H131.371V33.7672Z" fill="#0A0815"/>
<path d="M132.811 36.5218V38H132.014V33.0694H132.811V33.3075C133.013 33.1025 133.258 33 133.547 33C134.635 33 135.179 33.6239 135.179 34.8717C135.179 35.4449 135.029 35.8891 134.729 36.2044C134.43 36.5196 134.019 36.6772 133.496 36.6772C133.254 36.6772 133.026 36.6254 132.811 36.5218ZM132.811 33.9358V35.7976C132.956 35.9211 133.125 35.9828 133.321 35.9828C133.68 35.9828 133.941 35.8913 134.105 35.7083C134.268 35.5254 134.35 35.2366 134.35 34.8419C134.35 34.4429 134.273 34.1541 134.118 33.9755C133.965 33.7948 133.699 33.7044 133.321 33.7044C133.13 33.7044 132.96 33.7815 132.811 33.9358Z" fill="#0A0815"/>
<path d="M137.381 37.1799C137.296 37.4158 137.116 37.6109 136.842 37.7652C136.568 37.9217 136.24 38 135.857 38V37.2692C136.471 37.2692 136.778 37.1082 136.778 36.7864C136.778 36.5769 136.693 36.254 136.523 35.8175L135.453 33.0694H136.281L137.208 35.5132L138.05 33.0694H138.875L137.381 37.1799Z" fill="#0A0815"/>
<path d="M142.313 36.6111H141.517V33.7672H140.159V36.6111H139.363V33.0694H142.313V36.6111Z" fill="#0A0815"/>
<path d="M146.124 36.6111H145.328V33.7672H143.97V36.6111H143.174V33.0694H146.124V36.6111Z" fill="#0A0815"/>
<path d="M148.89 36.2606C148.818 36.3818 148.688 36.4821 148.502 36.5615C148.315 36.6387 148.131 36.6772 147.95 36.6772C147.576 36.6772 147.286 36.5813 147.08 36.3896C146.874 36.1978 146.771 35.9288 146.771 35.5827C146.771 35.1925 146.914 34.8761 147.198 34.6336C147.483 34.3889 147.908 34.2665 148.473 34.2665C148.564 34.2665 148.676 34.2853 148.807 34.3228C148.807 33.9017 148.555 33.6911 148.049 33.6911C147.752 33.6911 147.499 33.7429 147.291 33.8466L147.122 33.2116C147.392 33.0705 147.718 33 148.1 33C148.627 33 149.009 33.1268 149.247 33.3803C149.487 33.6316 149.607 34.0946 149.607 34.7692V35.5265C149.607 35.9982 149.699 36.2948 149.881 36.416C149.82 36.5306 149.751 36.6023 149.674 36.631C149.598 36.6618 149.502 36.6772 149.387 36.6772C149.275 36.6772 149.173 36.6354 149.081 36.5516C148.99 36.4656 148.926 36.3686 148.89 36.2606ZM148.814 34.9444C148.676 34.918 148.573 34.9048 148.505 34.9048C147.878 34.9048 147.565 35.1164 147.565 35.5397C147.565 35.8616 147.741 36.0225 148.094 36.0225C148.574 36.0225 148.814 35.7745 148.814 35.2784V34.9444Z" fill="#0A0815"/>
<path d="M155.391 36.6111H154.594V33.7672H153.237V36.6111H152.44V33.0694H155.391V36.6111Z" fill="#0A0815"/>
<path d="M157.048 36.5218V38H156.251V33.0694H157.048V33.3075C157.25 33.1025 157.495 33 157.784 33C158.872 33 159.415 33.6239 159.415 34.8717C159.415 35.4449 159.266 35.8891 158.966 36.2044C158.667 36.5196 158.255 36.6772 157.733 36.6772C157.491 36.6772 157.262 36.6254 157.048 36.5218ZM157.048 33.9358V35.7976C157.192 35.9211 157.362 35.9828 157.558 35.9828C157.917 35.9828 158.178 35.8913 158.341 35.7083C158.505 35.5254 158.587 35.2366 158.587 34.8419C158.587 34.4429 158.509 34.1541 158.354 33.9755C158.201 33.7948 157.936 33.7044 157.558 33.7044C157.366 33.7044 157.196 33.7815 157.048 33.9358Z" fill="#0A0815"/>
<path d="M159.861 34.8287C159.861 34.293 160.01 33.8543 160.308 33.5126C160.607 33.1709 161.004 33 161.499 33C162.018 33 162.42 33.1653 162.707 33.496C162.994 33.8267 163.137 34.2709 163.137 34.8287C163.137 35.4085 162.987 35.8616 162.688 36.1878C162.39 36.5141 161.994 36.6772 161.499 36.6772C160.985 36.6772 160.584 36.5108 160.295 36.1779C160.006 35.8428 159.861 35.3931 159.861 34.8287ZM160.69 34.8287C160.69 35.6113 160.96 36.0026 161.499 36.0026C161.744 36.0026 161.939 35.9034 162.086 35.705C162.234 35.5044 162.309 35.2123 162.309 34.8287C162.309 34.0615 162.039 33.6779 161.499 33.6779C161.253 33.6779 161.056 33.7782 160.91 33.9788C160.763 34.1795 160.69 34.4627 160.69 34.8287Z" fill="#0A0815"/>
<path d="M167.882 36.6111H167.066C166.894 35.6102 166.803 35.0514 166.792 34.9345C166.784 34.8177 166.779 34.7372 166.779 34.6931H166.748C166.703 34.8474 166.664 34.9588 166.63 35.0271L165.827 36.6772H165.546L164.954 35.4702C164.796 35.1484 164.705 34.9522 164.679 34.8816C164.654 34.8111 164.634 34.7482 164.619 34.6931H164.587C164.587 34.8408 164.567 35.0381 164.527 35.2851L164.313 36.6111H163.536L164.182 33H164.488L165.728 35.5265L166.948 33H167.238L167.882 36.6111Z" fill="#0A0815"/>
<path d="M169.271 34.336C169.458 34.3183 169.66 34.3095 169.877 34.3095C170.295 34.3095 170.62 34.412 170.852 34.6171C171.085 34.8199 171.202 35.1098 171.202 35.4868C171.202 36.2363 170.758 36.6111 169.87 36.6111H168.494V33.0694H169.271V34.336ZM169.271 35.9663C169.448 35.9773 169.624 35.9828 169.8 35.9828C170.038 35.9828 170.2 35.9332 170.285 35.834C170.37 35.7326 170.412 35.6036 170.412 35.4471C170.412 35.3016 170.36 35.1803 170.256 35.0833C170.154 34.9863 170.004 34.9378 169.807 34.9378C169.694 34.9378 169.516 34.9444 169.271 34.9577V35.9663ZM172.502 36.6111H171.718V33.0694H172.502V36.6111Z" fill="#0A0815"/>
<path d="M177.69 36.6111H173.363V33.0694H174.134V35.9398H175.138V33.0694H175.909V35.9398H176.919V33.0694H177.69V36.6111Z" fill="#0A0815"/>
<path d="M181.6 36.6111H180.822V33.7209H179.981C179.964 34.2147 179.91 34.6744 179.819 35.0999C179.729 35.5254 179.606 35.8538 179.449 36.0853C179.292 36.3146 179.123 36.4667 178.942 36.5417C178.764 36.6144 178.538 36.6508 178.264 36.6508V35.92C178.476 35.92 178.652 35.845 178.793 35.6951C178.933 35.543 179.052 35.2465 179.149 34.8056C179.247 34.3624 179.296 33.8576 179.296 33.291V33.0694H181.6V36.6111Z" fill="#0A0815"/>
<path d="M185.526 35.0933H183.085C183.098 35.3754 183.191 35.5959 183.365 35.7546C183.542 35.9112 183.774 35.9894 184.063 35.9894C184.422 35.9894 184.698 35.8891 184.892 35.6885L185.197 36.3267C184.911 36.5604 184.493 36.6772 183.945 36.6772C183.427 36.6772 183.016 36.5218 182.712 36.211C182.408 35.9001 182.256 35.4559 182.256 34.8783C182.256 34.3161 182.423 33.8631 182.757 33.5192C183.09 33.1731 183.488 33 183.952 33C184.44 33 184.835 33.1532 185.137 33.4597C185.439 33.7639 185.589 34.1552 185.589 34.6336C185.589 34.746 185.568 34.8993 185.526 35.0933ZM183.117 34.4716H184.786C184.733 33.9513 184.457 33.6911 183.958 33.6911C183.51 33.6911 183.229 33.9513 183.117 34.4716Z" fill="#0A0815"/>
<path d="M189.244 36.6111H188.448V35.0933H187.033V36.6111H186.236V33.0694H187.033V34.4087H188.448V33.0694H189.244V36.6111Z" fill="#0A0815"/>
<path d="M193.113 36.6111H192.316V35.0933H190.901V36.6111H190.105V33.0694H190.901V34.4087H192.316V33.0694H193.113V36.6111Z" fill="#0A0815"/>
<path d="M194.751 34.336C194.938 34.3183 195.139 34.3095 195.356 34.3095C195.775 34.3095 196.1 34.412 196.331 34.6171C196.565 34.8199 196.682 35.1098 196.682 35.4868C196.682 36.2363 196.238 36.6111 195.35 36.6111H193.973V33.0694H194.751V34.336ZM194.751 35.9663C194.927 35.9773 195.103 35.9828 195.28 35.9828C195.518 35.9828 195.679 35.9332 195.764 35.834C195.849 35.7326 195.891 35.6036 195.891 35.4471C195.891 35.3016 195.839 35.1803 195.735 35.0833C195.633 34.9863 195.484 34.9378 195.286 34.9378C195.173 34.9378 194.995 34.9444 194.751 34.9577V35.9663ZM197.982 36.6111H197.198V33.0694H197.982V36.6111Z" fill="#0A0815"/>
<path d="M201.028 36.6111L200.225 35.3909L199.403 36.6111H198.476L199.82 34.8089L198.568 33.0694H199.489L200.244 34.1938L201.003 33.0694H201.898L200.649 34.7692L202 36.6111H201.028Z" fill="#0A0815"/>
<path d="M131.883 43.9312C131.771 43.9457 131.648 43.9529 131.515 43.9529C131.118 43.9529 130.888 43.7212 130.827 43.2577C130.74 42.5794 130.4 42.2402 129.806 42.2402H129.787V43.9095H129V40.0314H129.787V41.4906H129.825C130.4 41.4906 130.724 41.2118 130.798 40.6542C130.857 40.21 131.081 39.9879 131.467 39.9879C131.527 39.9879 131.646 39.9952 131.826 40.0097V40.7447C131.771 40.7326 131.721 40.7266 131.677 40.7266C131.592 40.7266 131.534 40.8014 131.502 40.9511C131.401 41.4436 131.112 41.7477 130.637 41.8636C131.148 42.0205 131.456 42.3959 131.559 42.9897C131.585 43.1322 131.641 43.2034 131.728 43.2034C131.806 43.2034 131.858 43.1986 131.883 43.1889V43.9312Z" fill="#0A0815"/>
<path d="M132.34 41.9578C132.34 41.3712 132.488 40.8908 132.784 40.5166C133.082 40.1424 133.477 39.9553 133.97 39.9553C134.486 39.9553 134.886 40.1364 135.172 40.4985C135.457 40.8606 135.6 41.347 135.6 41.9578C135.6 42.5926 135.451 43.0887 135.153 43.446C134.857 43.8033 134.463 43.9819 133.97 43.9819C133.458 43.9819 133.059 43.7996 132.771 43.4351C132.483 43.0682 132.34 42.5757 132.34 41.9578ZM133.164 41.9578C133.164 42.8147 133.433 43.2432 133.97 43.2432C134.213 43.2432 134.408 43.1346 134.553 42.9173C134.701 42.6976 134.775 42.3778 134.775 41.9578C134.775 41.1177 134.507 40.6976 133.97 40.6976C133.725 40.6976 133.529 40.8075 133.383 41.0272C133.237 41.2468 133.164 41.557 133.164 41.9578Z" fill="#0A0815"/>
<path d="M140.323 43.9095H139.511C139.339 42.8135 139.248 42.2016 139.238 42.0736C139.229 41.9457 139.225 41.8576 139.225 41.8093H139.193C139.149 41.9783 139.11 42.1002 139.076 42.175L138.277 43.9819H137.998L137.408 42.6602C137.251 42.3078 137.16 42.0929 137.135 42.0157C137.11 41.9384 137.09 41.8696 137.075 41.8093H137.043C137.043 41.971 137.023 42.1871 136.983 42.4575L136.77 43.9095H135.997L136.64 39.9553H136.945L138.179 42.7218L139.393 39.9553H139.682L140.323 43.9095Z" fill="#0A0815"/>
<path d="M143.868 43.9095H143.075V40.7954H141.724V43.9095H140.931V40.0314H143.868V43.9095Z" fill="#0A0815"/>
<path d="M146.621 43.5256C146.549 43.6584 146.42 43.7683 146.234 43.8552C146.048 43.9397 145.865 43.9819 145.686 43.9819C145.314 43.9819 145.025 43.8769 144.82 43.6669C144.615 43.4569 144.512 43.1623 144.512 42.7833C144.512 42.3561 144.654 42.0097 144.937 41.7441C145.221 41.4762 145.643 41.3422 146.206 41.3422C146.297 41.3422 146.408 41.3627 146.539 41.4037C146.539 40.9427 146.287 40.7121 145.784 40.7121C145.488 40.7121 145.236 40.7689 145.029 40.8823L144.861 40.1871C145.13 40.0326 145.454 39.9553 145.835 39.9553C146.359 39.9553 146.74 40.0941 146.977 40.3718C147.215 40.647 147.335 41.1539 147.335 41.8926V42.7218C147.335 43.2384 147.426 43.5631 147.608 43.6958C147.546 43.8214 147.478 43.8998 147.402 43.9312C147.325 43.965 147.23 43.9819 147.116 43.9819C147.004 43.9819 146.903 43.936 146.812 43.8443C146.721 43.7502 146.657 43.6439 146.621 43.5256ZM146.545 42.0845C146.408 42.0555 146.305 42.041 146.238 42.041C145.614 42.041 145.302 42.2728 145.302 42.7363C145.302 43.0887 145.477 43.2649 145.828 43.2649C146.306 43.2649 146.545 42.9934 146.545 42.4502V42.0845Z" fill="#0A0815"/>
<path d="M151.188 43.9095H150.395V42.2474H148.987V43.9095H148.194V40.0314H148.987V41.4979H150.395V40.0314H151.188V43.9095Z" fill="#0A0815"/>
<path d="M155.093 43.9095H154.3V41.5667L152.26 44H152.045V40.0314H152.838V42.3742L154.877 39.9409H155.093V43.9095Z" fill="#0A0815"/>
<path d="M159 43.9095H158.207V41.5667L156.168 44H155.952V40.0314H156.745V42.3742L158.784 39.9409H159V43.9095ZM158.727 38.1557C158.668 38.5154 158.532 38.7906 158.318 38.9813C158.105 39.172 157.847 39.2674 157.544 39.2674C157.233 39.2674 156.975 39.1732 156.77 38.9849C156.565 38.7966 156.431 38.5202 156.368 38.1557L157.03 38C157.079 38.4345 157.257 38.6518 157.563 38.6518C157.878 38.6518 158.052 38.4369 158.083 38.0072L158.727 38.1557Z" fill="#0A0815"/>
<path d="M51 5H56.4914C57.6718 5 58.7253 5.16762 59.6517 5.50286C60.5782 5.82286 61.3626 6.30286 62.0052 6.94286C62.6477 7.58286 63.1408 8.38286 63.4845 9.34286C63.8282 10.3029 64 11.4076 64 12.6571V13.1143C64 14.3943 63.8207 15.5295 63.4621 16.52C63.1184 17.4952 62.6103 18.3181 61.9379 18.9886C61.2805 19.6438 60.4736 20.1467 59.5172 20.4971C58.5609 20.8324 57.4776 21 56.2672 21H51V5ZM56.0431 18.1657C56.6408 18.1657 57.2086 18.0819 57.7466 17.9143C58.2845 17.7314 58.7552 17.4419 59.1586 17.0457C59.577 16.6495 59.9057 16.1314 60.1448 15.4914C60.3839 14.8514 60.5034 14.059 60.5034 13.1143V12.6571C60.5034 11.7733 60.3914 11.0267 60.1672 10.4171C59.9431 9.79238 59.6368 9.28952 59.2483 8.90857C58.8747 8.52762 58.4264 8.25333 57.9034 8.08572C57.3954 7.9181 56.85 7.83429 56.2672 7.83429H54.3621V18.1657H56.0431Z" fill="#0A0815"/>
<path d="M77.4074 15.3454H68.8908C68.9352 16.3356 69.2614 17.1092 69.8692 17.6662C70.4844 18.2155 71.296 18.4901 72.3041 18.4901C73.5568 18.4901 74.5203 18.1381 75.1949 17.4341L76.2622 19.6737C75.2616 20.4937 73.8051 20.9038 71.8927 20.9038C70.0841 20.9038 68.6499 20.3584 67.5899 19.2676C66.53 18.1768 66 16.618 66 14.5911C66 12.6184 66.5819 11.0287 67.7456 9.82184C68.9093 8.60728 70.2991 8 71.9149 8C73.6198 8 74.9984 8.53766 76.051 9.61297C77.1035 10.6805 77.6298 12.0537 77.6298 13.7324C77.6298 14.127 77.5556 14.6646 77.4074 15.3454ZM69.0019 13.1638H74.8279C74.6426 11.3381 73.6791 10.4253 71.9372 10.4253C70.3732 10.4253 69.3948 11.3381 69.0019 13.1638Z" fill="#0A0815"/>
<path d="M87.5807 14.0457C89.1298 14.6259 89.9044 15.6703 89.9044 17.1788C89.9044 18.2464 89.5115 19.0974 88.7259 19.7317C87.9402 20.3584 86.769 20.6717 85.2125 20.6717H79.8868V8.26689C82.1179 8.15859 83.8486 8.10444 85.079 8.10444C86.4503 8.10444 87.5103 8.41775 88.2589 9.04437C89.0075 9.66325 89.3818 10.491 89.3818 11.5276C89.3818 12.0537 89.2225 12.5488 88.9037 13.013C88.5924 13.4694 88.1514 13.8137 87.5807 14.0457ZM82.5774 13.0942C82.8665 13.1097 83.6411 13.1174 84.9011 13.1174C86.1168 13.1174 86.7246 12.6339 86.7246 11.6669C86.7246 11.2491 86.5726 10.9165 86.2687 10.6689C85.9722 10.4137 85.5608 10.286 85.0346 10.286C84.0562 10.286 83.2371 10.317 82.5774 10.3788V13.0942ZM82.5774 18.4089C83.541 18.4476 84.3526 18.4669 85.0123 18.4669C86.4577 18.4669 87.1804 17.9176 87.1804 16.8191C87.1804 16.2699 86.9729 15.8598 86.5578 15.5891C86.1427 15.3183 85.6275 15.1829 85.0123 15.1829L82.5774 15.2061V18.4089Z" fill="#0A0815"/>
<path d="M102.046 20.6717H99.3105V15.9604H98.5767C96.4939 15.9604 95.3264 16.8965 95.0744 18.7686C94.8965 20.1301 94.1145 20.8109 92.7285 20.8109C92.3356 20.8109 91.9576 20.7877 91.5944 20.7413V18.3625C91.6833 18.3934 91.8427 18.4089 92.0725 18.4089C92.406 18.4089 92.6173 18.1807 92.7062 17.7242C92.8396 17.0589 93.1287 16.4865 93.5734 16.0068C94.0182 15.5272 94.5704 15.1984 95.2301 15.0205C93.3029 14.6491 92.3393 13.57 92.3393 11.7829C92.3393 10.7308 92.7136 9.85666 93.4623 9.16041C94.2109 8.45643 95.4376 8.10444 97.1424 8.10444C98.1431 8.10444 99.7775 8.16633 102.046 8.2901V20.6717ZM99.3105 13.802V10.3788C98.7175 10.317 97.9948 10.286 97.1424 10.286C96.4605 10.286 95.9602 10.4446 95.6415 10.7618C95.3227 11.0712 95.1634 11.4735 95.1634 11.9686C95.1634 12.4947 95.3746 12.9279 95.7971 13.2683C96.227 13.6009 96.8126 13.7711 97.5538 13.7788L99.3105 13.802Z" fill="#0A0815"/>
<path d="M110.507 10.6921V20.6717H107.705V10.6921H104.292V8.24369H113.92V10.6921H110.507Z" fill="#0A0815"/>
<path d="M126.65 20.6717H123.871V15.3454H118.934V20.6717H116.155V8.24369H118.934V12.9433H123.871V8.24369H126.65V20.6717Z" fill="#0A0815"/>
<path d="M136.301 19.4416C136.049 19.8671 135.597 20.2191 134.945 20.4976C134.292 20.7684 133.651 20.9038 133.021 20.9038C131.717 20.9038 130.705 20.5672 129.986 19.8942C129.267 19.2212 128.907 18.2774 128.907 17.0628C128.907 15.6935 129.404 14.5834 130.397 13.7324C131.391 12.8737 132.873 12.4444 134.845 12.4444C135.163 12.4444 135.553 12.5101 136.012 12.6416C136.012 11.164 135.13 10.4253 133.366 10.4253C132.328 10.4253 131.446 10.6071 130.72 10.9706L130.13 8.74266C131.072 8.24755 132.21 8 133.544 8C135.382 8 136.716 8.44482 137.546 9.33447C138.384 10.2164 138.803 11.841 138.803 14.2082V16.8655C138.803 18.521 139.122 19.5615 139.759 19.987C139.544 20.3893 139.303 20.6407 139.036 20.7413C138.769 20.8496 138.436 20.9038 138.036 20.9038C137.643 20.9038 137.287 20.7568 136.968 20.4628C136.65 20.1611 136.427 19.8207 136.301 19.4416ZM136.034 14.8232C135.553 14.7304 135.193 14.684 134.956 14.684C132.769 14.684 131.676 15.4266 131.676 16.9119C131.676 18.0414 132.291 18.6061 133.522 18.6061C135.197 18.6061 136.034 17.7358 136.034 15.9952V14.8232Z" fill="#0A0815"/>
<path d="M153.957 25H151.567V20.6717H143.206V25H140.815V18.3857H141.949C142.75 17.2717 143.365 15.9527 143.795 14.4287C144.225 12.9047 144.44 11.3729 144.44 9.83345V8.24369H152.312V18.3857H153.957V25ZM149.743 18.3857V10.4949H146.741C146.593 13.8214 145.885 16.4516 144.618 18.3857H149.743Z" fill="#0A0815"/>
<path d="M167.666 25H165.231V20.6717H156.047V8.24369H158.805V18.2928H163.263V8.24369H166.02V18.2928H167.666V25Z" fill="#0A0815"/>
<path d="M176.416 19.4416C176.164 19.8671 175.712 20.2191 175.06 20.4976C174.407 20.7684 173.766 20.9038 173.136 20.9038C171.832 20.9038 170.82 20.5672 170.101 19.8942C169.382 19.2212 169.022 18.2774 169.022 17.0628C169.022 15.6935 169.519 14.5834 170.512 13.7324C171.505 12.8737 172.988 12.4444 174.96 12.4444C175.278 12.4444 175.667 12.5101 176.127 12.6416C176.127 11.164 175.245 10.4253 173.481 10.4253C172.443 10.4253 171.561 10.6071 170.835 10.9706L170.245 8.74266C171.187 8.24755 172.325 8 173.659 8C175.497 8 176.831 8.44482 177.661 9.33447C178.499 10.2164 178.918 11.841 178.918 14.2082V16.8655C178.918 18.521 179.236 19.5615 179.874 19.987C179.659 20.3893 179.418 20.6407 179.151 20.7413C178.884 20.8496 178.551 20.9038 178.151 20.9038C177.758 20.9038 177.402 20.7568 177.083 20.4628C176.764 20.1611 176.542 19.8207 176.416 19.4416ZM176.149 14.8232C175.667 14.7304 175.308 14.684 175.071 14.684C172.884 14.684 171.791 15.4266 171.791 16.9119C171.791 18.0414 172.406 18.6061 173.636 18.6061C175.312 18.6061 176.149 17.7358 176.149 15.9952V14.8232Z" fill="#0A0815"/>
<path d="M187.379 10.6921V20.6717H184.577V10.6921H181.164V8.24369H190.792V10.6921H187.379Z" fill="#0A0815"/>
<path d="M195.784 12.6881C196.511 12.6262 197.322 12.5952 198.219 12.5952C199.709 12.5952 200.876 12.9549 201.721 13.6744C202.574 14.3939 203 15.4111 203 16.7263C203 17.9331 202.618 18.8924 201.855 19.6041C201.091 20.3158 199.857 20.6717 198.152 20.6717H193.027V8.24369H195.784V12.6881ZM195.784 18.3857C196.525 18.4166 197.237 18.4321 197.919 18.4321C199.438 18.4321 200.198 17.8248 200.198 16.6102C200.198 16.1074 200.02 15.6858 199.664 15.3454C199.316 14.9973 198.745 14.8232 197.952 14.8232C197.537 14.8232 196.814 14.8464 195.784 14.8928V18.3857Z" fill="#0A0815"/>
<path d="M65.5909 42.7314H62.7943L61.1186 34.2639L57.8448 42.9463H56.8238L53.5278 34.2639L51.7744 42.7314H49L52.2738 27H53.7942L57.3232 37.6058L60.7524 27H62.2727L65.5909 42.7314Z" fill="#0A0815"/>
<path d="M74.2803 41.5923C74.0288 41.9863 73.5775 42.3123 72.9264 42.5702C72.2754 42.8209 71.6354 42.9463 71.0065 42.9463C69.7044 42.9463 68.6945 42.6347 67.9769 42.0114C67.2592 41.3882 66.9004 40.5142 66.9004 39.3895C66.9004 38.1216 67.3961 37.0936 68.3875 36.3056C69.3789 35.5104 70.8586 35.1128 72.8265 35.1128C73.1447 35.1128 73.5331 35.1737 73.9918 35.2955C73.9918 33.9272 73.1114 33.2431 71.3506 33.2431C70.3148 33.2431 69.4344 33.4115 68.7093 33.7482L68.1212 31.685C69.0608 31.2266 70.1964 30.9973 71.5281 30.9973C73.3629 30.9973 74.6946 31.4092 75.5233 32.233C76.3593 33.0497 76.7773 34.5541 76.7773 36.7461V39.2069C76.7773 40.7399 77.0954 41.7034 77.7317 42.0974C77.5171 42.4699 77.2767 42.7027 77.0103 42.7958C76.744 42.8961 76.4111 42.9463 76.0116 42.9463C75.6194 42.9463 75.2643 42.8102 74.9462 42.5379C74.6281 42.2586 74.4061 41.9434 74.2803 41.5923ZM74.014 37.3156C73.5331 37.2297 73.1743 37.1867 72.9375 37.1867C70.755 37.1867 69.6637 37.8744 69.6637 39.2498C69.6637 40.2957 70.2778 40.8187 71.5059 40.8187C73.178 40.8187 74.014 40.0128 74.014 38.4009V37.3156Z" fill="#0A0815"/>
<path d="M94.8553 42.7314H79.7847V31.223H82.4704V40.55H85.9661V31.223H88.6517V40.55H92.1697V31.223H94.8553V42.7314Z" fill="#0A0815"/>
<path d="M108.516 42.7314H105.742V35.779L98.6063 43H97.8516V31.223H100.626V38.1753L107.762 30.9543H108.516V42.7314Z" fill="#0A0815"/>
<path d="M122 42.7314H119.226V37.7992H114.298V42.7314H111.524V31.223H114.298V35.5749H119.226V31.223H122V42.7314Z" fill="#0A0815"/>
</svg>
