<svg width="16" height="16" viewBox="0 0 16 16" fill="none" xmlns="http://www.w3.org/2000/svg">
<g clip-path="url(#clip0_48_106)">
<path d="M12.1641 10.5836C11.6414 10.0676 10.9888 10.0676 10.4694 10.5836C10.0732 10.9765 9.67699 11.3694 9.28744 11.7689C9.1809 11.8788 9.091 11.9021 8.96115 11.8288C8.70479 11.689 8.43177 11.5758 8.18539 11.4226C7.03673 10.7001 6.07452 9.77123 5.22218 8.72578C4.79934 8.20639 4.42312 7.65037 4.16009 7.02443C4.10682 6.89791 4.11681 6.81468 4.22002 6.71147C4.61622 6.32858 5.00244 5.9357 5.39198 5.54283C5.93469 4.9968 5.93469 4.35754 5.38866 3.80818C5.07902 3.49522 4.76938 3.18891 4.45974 2.87594C4.14011 2.55631 3.82381 2.23335 3.50086 1.91706C2.97813 1.40765 2.32556 1.40765 1.80617 1.92039C1.40663 2.31326 1.02375 2.71612 0.617555 3.10234C0.241327 3.45859 0.0515486 3.89475 0.0115952 4.40416C-0.0516643 5.23319 0.151432 6.01561 0.437765 6.77805C1.02375 8.35621 1.91604 9.75791 2.99811 11.0431C4.45974 12.7811 6.20437 14.1561 8.24532 15.1483C9.16425 15.5944 10.1165 15.9374 11.1519 15.994C11.8644 16.0339 12.4837 15.8541 12.9798 15.2981C13.3194 14.9186 13.7023 14.5723 14.0619 14.2094C14.5946 13.67 14.5979 13.0174 14.0685 12.4847C13.4359 11.8488 12.8 11.2162 12.1641 10.5836Z" fill="#0A0815"/>
<path d="M11.5284 7.93104L12.7569 7.72128C12.5638 6.5926 12.0311 5.57046 11.2221 4.75807C10.3664 3.9024 9.28431 3.36303 8.09237 3.19656L7.91924 4.43179C8.84149 4.56163 9.68052 4.97782 10.3431 5.64038C10.969 6.26631 11.3785 7.05872 11.5284 7.93104Z" fill="#0A0815"/>
<path d="M13.4494 2.59031C12.031 1.17197 10.2364 0.276344 8.25542 0L8.08229 1.23523C9.79363 1.47495 11.3452 2.25071 12.5704 3.47262C13.7324 4.63459 14.4948 6.10288 14.7712 7.71766L15.9997 7.50791C15.6768 5.63676 14.7945 3.93874 13.4494 2.59031Z" fill="#0A0815"/>
</g>
<defs>
<clipPath id="clip0_48_106">
<rect width="16" height="16" fill="white"/>
</clipPath>
</defs>
</svg>
