<svg width="15" height="12" viewBox="0 0 15 12" fill="none" xmlns="http://www.w3.org/2000/svg">
<path d="M15 9.37494C15 9.70378 14.9075 10.0086 14.7593 10.2768L10.0232 4.9778L14.708 0.879051C14.8902 1.16825 15 1.50797 15 1.87508V9.37494ZM7.50002 5.93995L14.0187 0.236248C13.7512 0.0898062 13.45 0 13.125 0H1.87499C1.54965 0 1.24832 0.0898062 0.981903 0.236248L7.50002 5.93995ZM9.31738 5.59489L7.80848 6.91598C7.72022 6.99286 7.61032 7.03126 7.50002 7.03126C7.38965 7.03126 7.27975 6.99286 7.19149 6.91598L5.68225 5.59482L0.886223 10.9616C1.1737 11.1419 1.5106 11.25 1.87496 11.25H13.125C13.4893 11.25 13.8264 11.1419 14.1138 10.9616L9.31738 5.59489ZM0.292079 0.87902C0.10987 1.16822 0 1.50794 0 1.87508V9.37497C0 9.70381 0.092063 10.0087 0.240792 10.2769L4.97635 4.97691L0.292079 0.87902Z" fill="#0A0815"/>
</svg>
